<!-- Generated by IcoMoon.io -->
<svg version="1.1" xmlns="http://www.w3.org/2000/svg" width="20" height="20" viewBox="0 0 640 640">
<title></title>
<g id="icomoon-ignore">
</g>
<path d="M97.694 550.174c-60.272-58.271-97.692-139.851-97.692-230.173 0-176.731 143.269-320 320-320 90.321 0 171.902 37.42 230.086 97.602l0.086 0.090c55.578 57.487 89.828 135.898 89.828 222.308 0 176.731-143.269 320-320 320-86.41 0-164.821-34.249-222.398-89.914l0.090 0.086zM505.054 505.054c46.352-46.353 75.023-110.388 75.023-181.12 0-141.464-114.679-256.142-256.143-256.142-70.732 0-134.767 28.67-181.12 75.023v0c-46.352 46.352-75.023 110.388-75.023 181.12 0 141.464 114.679 256.143 256.142 256.143 70.732 0 134.767-28.67 181.12-75.023v0zM218.334 301.214l73.6 73.92 137.6-137.6 44.8 45.44-182.4 181.76-118.4-118.4 44.8-45.44z"></path>
</svg>
