<!-- Generated by IcoMoon.io -->
<svg version="1.1" xmlns="http://www.w3.org/2000/svg" style = "fill: rgb(254, 228, 0)" width="640" height="640" viewBox="0 0 640 640">
<title></title>
<g id="icomoon-ignore">
</g>
<path d="M320 448c-70.692 0-128-57.308-128-128s57.308-128 128-128v0c70.692 0 128 57.308 128 128s-57.308 128-128 128v0zM288 32c0-17.673 14.327-32 32-32s32 14.327 32 32v0 64c0 17.673-14.327 32-32 32s-32-14.327-32-32v0-64zM500.8 94.080c5.904-6.865 14.6-11.186 24.306-11.186 17.673 0 32 14.327 32 32 0 9.705-4.321 18.401-11.143 24.27l-0.042 0.036-44.8 44.8c-5.904 6.865-14.6 11.186-24.306 11.186-17.673 0-32-14.327-32-32 0-9.705 4.321-18.401 11.143-24.27l0.042-0.036 44.8-44.8zM607.68 288c17.673 0 32 14.327 32 32s-14.327 32-32 32v0h-63.36c-17.673 0-32-14.327-32-32s14.327-32 32-32v0h63.36zM545.92 500.8c6.865 5.904 11.186 14.6 11.186 24.306 0 17.673-14.327 32-32 32-9.705 0-18.401-4.321-24.27-11.143l-0.036-0.042-44.8-44.8c-6.865-5.904-11.186-14.6-11.186-24.306 0-17.673 14.327-32 32-32 9.705 0 18.401 4.321 24.27 11.143l0.036 0.042 44.8 44.8zM352 607.68c0 17.673-14.327 32-32 32s-32-14.327-32-32v0-63.36c0-17.673 14.327-32 32-32s32 14.327 32 32v0 63.36zM139.2 545.92c-5.904 6.865-14.6 11.186-24.306 11.186-17.673 0-32-14.327-32-32 0-9.705 4.321-18.401 11.143-24.27l0.042-0.036 44.8-44.8c5.904-6.865 14.6-11.186 24.306-11.186 17.673 0 32 14.327 32 32 0 9.705-4.321 18.401-11.143 24.27l-0.042 0.036-44.8 44.8zM32.32 352c-17.673 0-32-14.327-32-32s14.327-32 32-32v0h63.36c17.673 0 32 14.327 32 32s-14.327 32-32 32v0h-63.36zM94.080 139.2c-6.865-5.904-11.186-14.6-11.186-24.306 0-17.673 14.327-32 32-32 9.705 0 18.401 4.321 24.27 11.143l0.036 0.042 44.8 44.8c6.865 5.904 11.186 14.6 11.186 24.306 0 17.673-14.327 32-32 32-9.705 0-18.401-4.321-24.27-11.143l-0.036-0.042-44.8-44.8z"></path>
</svg>
